<?xml version="1.0" encoding="utf-8"?>
<!-- Generator: Adobe Illustrator 28.3.0, SVG Export Plug-In . SVG Version: 6.00 Build 0)  -->
<svg version="1.1" xmlns="http://www.w3.org/2000/svg" xmlns:xlink="http://www.w3.org/1999/xlink" x="0px" y="0px"
	 viewBox="0 0 1080 1080" style="enable-background:new 0 0 1080 1080;" xml:space="preserve">
<style type="text/css">
	.st0{display:none;}
	.st1{display:inline;fill:#FF7A30;}
	.st2{display:inline;fill:#465C88;}
	.st3{fill:#E9E3DF;}
</style>
<g id="Orange_Anchor" class="st0">
	<path class="st1" d="M358.83,164.16c-8.97-52.55,13-96.94,61-120.48c17.03-8.35,36.38-12.7,55.14-16.6
		c19.93-4.14,34.76,6.03,45.73,22.17c2.86,4.21,4.58,9.26,7.79,13.13c3.02,3.65,7.31,6.25,11.04,9.32
		c-0.13-5.06,1.19-10.78-0.73-15.04c-3.11-6.93-8.34-12.92-13.4-20.37c17.07,1.62,28.79,9.94,37.84,22.41
		c3.78,5.2,6.17,11.45,10.15,16.45c2.27,2.85,6.49,4.15,9.83,6.14c0.3-3.95,2.1-8.63,0.6-11.71c-3.36-6.94-8.2-13.2-12.75-19.51
		c-2.13-2.95-5-5.36-6.93-8.89c17.18,1.16,29.71,10.54,39.85,23.44c4.14,5.27,6.35,12.01,10.22,17.54c1.83,2.62,5.51,3.96,8.34,5.87
		c0.87-3.26,3.42-7.3,2.32-9.63c-4.26-9.06-9.69-17.57-14.81-26.52c13.99,1.84,25.59,10.01,31.48,21.98
		c7.51,15.26,11.57,32.3,16.25,48.82c1.75,6.16-2.98,7.17-8.28,6.17c-7.32-1.37-14.68-2.59-22.07-3.48
		c-5.2-0.63-9.73,0.57-10.07,7.08c-0.34,6.48,2.71,10.11,9.26,11.13c7.38,1.15,14.71,2.63,22.03,4.08
		c14.1,2.78,16.58,6.6,14.31,23.41c-9.55-1.38-19.12-2.7-28.68-4.16c-5.08-0.78-9.99-1.04-10.83,5.63
		c-0.7,5.58-0.71,11.03,7.04,12.26c9.03,1.42,18.03,3.15,26.96,5.14c11.51,2.57,14.8,9.41,10.7,22.17
		c-9.95-0.99-20.01-2.12-30.09-2.93c-5.42-0.44-10.58,0.14-10.57,7.57c0.01,6.62,3.54,9.91,9.94,10.6
		c5.74,0.62,11.44,1.6,17.18,2.06c18.81,1.54,19.79,2.54,20.23,23.44c-9.48-0.76-18.86-1.42-28.23-2.28
		c-5.62-0.52-11.7-1.32-12.96,6.05c-1.3,7.54,3.02,11.04,10.45,11.8c7.41,0.76,14.77,2.1,22.11,3.44
		c15.12,2.76,16.76,5.59,12.89,20.89c-9.89,0-19.68,0.39-29.42-0.15c-5.57-0.31-10.77-0.72-11.72,6.15
		c-0.98,7.12,3.63,10.84,10,11.76c9.06,1.3,18.22,2.29,27.36,2.56c6.39,0.19,8.73,2.72,9.87,8.87c4.94,26.66,7.61,53.03-10.88,76.06
		c-15.71,19.55-37.67,28.9-61.47,33.47c-9.97,1.91-12.58,5.92-12.28,15.48c0.48,15.26,1.26,30.88-1.34,45.78
		c-4.59,26.3-23.74,44.65-40.27,63.88c-6.23,7.24-9.46,13.88-9.37,23.47c0.94,101.83,1.36,203.66,2.25,305.48
		c0.28,31.89,24.41,50.56,55.64,43.41c54.08-12.37,93.13-45.42,120.07-92.34c12.21-21.27,19.43-45.42,28.81-68.3
		c0.88-2.15,1.11-4.59,1.4-6.93c0.12-0.93-0.43-1.94-1.05-4.4h-42.5c27.76-28.35,51.27-56.22,66.18-92.37
		c24.41,36.39,34.2,76.35,47.4,114.99c-10.16-5.41-20.13-10.72-31.7-16.89c-2.44,16.6-3.93,32.01-7.04,47.08
		c-16.4,79.48-59.89,138.45-132.39,176.24c-31.57,16.46-62.05,35.09-92.47,53.63c-10.02,6.11-18.32,15.03-27.72,22.93
		c-11.41-9.98-22.09-21.07-34.46-29.75c-19.73-13.83-40.19-26.75-61.06-38.8c-31.91-18.43-62.87-37.98-89.3-65.93
		c-6.59,7.46-12.53,14.18-18.51,20.95c-8.34-13.93-14.29-95.8-7.86-115.52c23.73,26.84,53.79,43.69,86.88,60.51
		c-9.78,5.57-17.7,10.09-25.69,14.64c18.1,24.4,61.26,39.4,88.36,31.32c18.81-5.61,31.77-23.22,31.8-43.94
		c0.11-61.32-0.09-122.64,0.12-183.96c0.12-34.68,0.94-69.36,1.12-104.04c0.07-13.6-0.43-27.23-1.46-40.79
		c-0.26-3.39-3.01-7.12-5.6-9.71c-7.15-7.18-16.46-12.79-21.82-21.03c-5.08-7.81-7.61-17.99-8.77-27.44
		c-1.45-11.74-0.34-23.8-0.34-35.73c-0.01-9.69,3.41-15.46,14.19-17.53c27.47-5.27,52.81-15.4,72.64-36.4
		c12.14-12.85,18.92-28.05,21.26-45.37c0.36-2.65,0.56-5.7-0.41-8.05c-0.89-2.15-5.32-5.04-5.32-5.04s-5.22,1.72-6.31,3.63
		c-1.61,2.81-1.92,6.41-2.61,9.71c-8.75,41.98-48.53,60.51-77.54,63.53c-19.01,1.98-37.93,1.24-56.13-6.67
		c-26.88-11.67-41.35-32.35-45.5-60.62c-2.86-19.46-2.43-19.47,16.37-25.9c6.1-2.09,12.82-3.48,17.87-7.12
		c3.24-2.34,7.58-8.2,5.75-12.49c-1.81-4.25-8.89-5.07-12.9-4.5c-6.92,0.98-13.43,4.61-20.23,6.79c-4.54,1.46-10.51,5.19-12.08-3.12
		c-1.24-6.56-4.66-14.49,5.47-17.98c7.71-2.66,15.39-5.41,23.03-8.28c6.85-2.57,11.37-7.02,8.27-14.79
		c-3.04-7.6-9.07-5.24-14.71-3.24c-8.24,2.92-16.51,5.74-24.54,8.52c-8.31-14.52-6.84-19.41,6.8-25.13
		c6.89-2.89,14.43-4.76,20.55-8.8c3.33-2.2,8.07-7.82,6.35-12.12c-1.6-4-8.51-4.9-12.05-4.12c-9.52,2.11-18.65,6.01-27.86,9.18
		c-8.09-15.61-6.67-19.81,8.58-26.55c6.54-2.89,13.22-5.48,19.57-8.74c5.37-2.76,9.91-6.49,6.83-13.74
		c-3.05-7.19-8.26-5.56-13.61-3.36c-5.35,2.2-10.61,4.65-16.07,6.51c-4.32,1.48-9.14,6.9-13.28,0.04
		c-3.39-5.63-0.44-16.71,5.04-19.65c6.9-3.7,14.03-6.97,21.01-10.52c2.72-1.38,6.51-2.41,7.68-4.69c1.89-3.69,3.66-8.94,2.32-12.26
		c-0.93-2.31-7.8-4.34-10.89-3.27C377.95,154.57,369,159.43,358.83,164.16z M578.62,266.25c7.06-0.21,14.8,1.52,15.71-7.89
		c0.9-9.37-5.43-11.69-13.5-12.68c-41.17-5.08-81.2-0.77-120.13,13.63c-7.13,2.64-12.23,6.61-9.34,15.12
		c3.03,8.92,9.79,6.44,16.04,4.51c9.06-2.81,17.91-6.48,27.12-8.6C522.52,263.89,550.84,262.32,578.62,266.25z M535.28,157.74
		c-11.43,0.89-21.15,0.55-30.35,2.58c-19.85,4.38-39.57,9.55-58.99,15.54c-3.04,0.94-6.14,8.18-5.61,12.01
		c0.38,2.72,6.57,5.49,10.61,6.55c2.88,0.75,6.6-1,9.76-2.15c35.22-12.74,71.19-17.07,108.26-10.24c6.4,1.18,11.93-0.24,13.11-7.62
		c1.2-7.54-2.93-11.42-10.24-12.29C559.03,160.59,546.23,159.05,535.28,157.74z M576.5,223.1c2.5-0.1,5.28,1.48,8.5-1.1
		c3.49-2.8,2.7-2.46,3-6c0.3-3.52-4.91-7.73-8.38-10.62c-2.3-1.92-6.42-2.04-9.78-2.25c-37.19-2.33-74.04-1.48-109.57,11.9
		c-7.69,2.9-17.74,4.47-14.13,15.68c3.76,11.68,13.44,6.52,20.66,3.87c24.31-8.92,49.26-12.59,75.08-11.56
		C553.41,223.48,564.96,223.1,576.5,223.1z M562.03,307.61c8.23,0,18.51,0.73,28.59-0.36c3.97-0.43,9.68-4.29,10.73-7.76
		c1.71-5.66-2.03-10.05-8.87-10.82c-43.12-4.84-85.48-2.09-126.49,12.97c-3.36,1.23-7.18,5.56-7.84,9c-1.87,9.88,5.11,14.14,17,9.62
		C502.6,309.82,530.79,305.23,562.03,307.61z M517,114c-19.69,0.93-43.86,8.8-68.16,14.58c-12.11,2.88-16.39,8.55-13.2,16.35
		c4.11,10.04,12,4.89,18.27,3.02c25.15-7.52,50.62-13.17,77-12.35c12.48,0.39,24.88,2.95,37.37,3.6c3.11,0.16,9.1-3.26,9.09-5
		c-0.03-4.09-2.23-8.67-4.86-12.04c-1.53-1.97-5.52-2.39-8.5-2.79C550.25,117.53,536.71,113.07,517,114z M540.51,517.66
		c13.83,0.15,23.15-7.84,23.38-20.07c0.27-14.31-10.11-26.7-22.46-26.8c-12.47-0.1-21.34,10.24-21.29,24.85
		C520.18,508.23,528.79,517.53,540.51,517.66z M566.58,426.93c0.6,0.13,1.88,0.67,3.17,0.67c27.2-0.02,53.52-33.21,47.22-59.93
		c-0.61-2.59-3.94-4.53-6.01-6.78c-1.98,2.45-4.71,4.6-5.81,7.39c-4.18,10.63-6.02,22.65-12.15,31.89
		C586.31,410.26,575.84,417.84,566.58,426.93z M614.55,423.06c-0.17-0.15,0.28,0.61,0.76,0.63c24.73,1.23,50.98-31.39,44.13-55.21
		c-0.77-2.66-4.27-4.54-6.5-6.78c-2.34,2.46-5.75,4.52-6.83,7.44c-3.71,10.08-5,21.39-10.26,30.47
		C630.7,408.54,621.82,415.32,614.55,423.06z"/>
</g>
<g id="Blue_Anchor" class="st0">
	<path class="st2" d="M358.83,164.16c-8.97-52.55,13-96.94,61-120.48c17.03-8.35,36.38-12.7,55.14-16.6
		c19.93-4.14,34.76,6.03,45.73,22.17c2.86,4.21,4.58,9.26,7.79,13.13c3.02,3.65,7.31,6.25,11.04,9.32
		c-0.13-5.06,1.19-10.78-0.73-15.04c-3.11-6.93-8.34-12.92-13.4-20.37c17.07,1.62,28.79,9.94,37.84,22.41
		c3.78,5.2,6.17,11.45,10.15,16.45c2.27,2.85,6.49,4.15,9.83,6.14c0.3-3.95,2.1-8.63,0.6-11.71c-3.36-6.94-8.2-13.2-12.75-19.51
		c-2.13-2.95-5-5.36-6.93-8.89c17.18,1.16,29.71,10.54,39.85,23.44c4.14,5.27,6.35,12.01,10.22,17.54c1.83,2.62,5.51,3.96,8.34,5.87
		c0.87-3.26,3.42-7.3,2.32-9.63c-4.26-9.06-9.69-17.57-14.81-26.52c13.99,1.84,25.59,10.01,31.48,21.98
		c7.51,15.26,11.57,32.3,16.25,48.82c1.75,6.16-2.98,7.17-8.28,6.17c-7.32-1.37-14.68-2.59-22.07-3.48
		c-5.2-0.63-9.73,0.57-10.07,7.08c-0.34,6.48,2.71,10.11,9.26,11.13c7.38,1.15,14.71,2.63,22.03,4.08
		c14.1,2.78,16.58,6.6,14.31,23.41c-9.55-1.38-19.12-2.7-28.68-4.16c-5.08-0.78-9.99-1.04-10.83,5.63
		c-0.7,5.58-0.71,11.03,7.04,12.26c9.03,1.42,18.03,3.15,26.96,5.14c11.51,2.57,14.8,9.41,10.7,22.17
		c-9.95-0.99-20.01-2.12-30.09-2.93c-5.42-0.44-10.58,0.14-10.57,7.57c0.01,6.62,3.54,9.91,9.94,10.6
		c5.74,0.62,11.44,1.6,17.18,2.06c18.81,1.54,19.79,2.54,20.23,23.44c-9.48-0.76-18.86-1.42-28.23-2.28
		c-5.62-0.52-11.7-1.32-12.96,6.05c-1.3,7.54,3.02,11.04,10.45,11.8c7.41,0.76,14.77,2.1,22.11,3.44
		c15.12,2.76,16.76,5.59,12.89,20.89c-9.89,0-19.68,0.39-29.42-0.15c-5.57-0.31-10.77-0.72-11.72,6.15
		c-0.98,7.12,3.63,10.84,10,11.76c9.06,1.3,18.22,2.29,27.36,2.56c6.39,0.19,8.73,2.72,9.87,8.87c4.94,26.66,7.61,53.03-10.88,76.06
		c-15.71,19.55-37.67,28.9-61.47,33.47c-9.97,1.91-12.58,5.92-12.28,15.48c0.48,15.26,1.26,30.88-1.34,45.78
		c-4.59,26.3-23.74,44.65-40.27,63.88c-6.23,7.24-9.46,13.88-9.37,23.47c0.94,101.83,1.36,203.66,2.25,305.48
		c0.28,31.89,24.41,50.56,55.64,43.41c54.08-12.37,93.13-45.42,120.07-92.34c12.21-21.27,19.43-45.42,28.81-68.3
		c0.88-2.15,1.11-4.59,1.4-6.93c0.12-0.93-0.43-1.94-1.05-4.4h-42.5c27.76-28.35,51.27-56.22,66.18-92.37
		c24.41,36.39,34.2,76.35,47.4,114.99c-10.16-5.41-20.13-10.72-31.7-16.89c-2.44,16.6-3.93,32.01-7.04,47.08
		c-16.4,79.48-59.89,138.45-132.39,176.24c-31.57,16.46-62.05,35.09-92.47,53.63c-10.02,6.11-18.32,15.03-27.72,22.93
		c-11.41-9.98-22.09-21.07-34.46-29.75c-19.73-13.83-40.19-26.75-61.06-38.8c-31.91-18.43-62.87-37.98-89.3-65.93
		c-6.59,7.46-12.53,14.18-18.51,20.95c-8.34-13.93-14.29-95.8-7.86-115.52c23.73,26.84,53.79,43.69,86.88,60.51
		c-9.78,5.57-17.7,10.09-25.69,14.64c18.1,24.4,61.26,39.4,88.36,31.32c18.81-5.61,31.77-23.22,31.8-43.94
		c0.11-61.32-0.09-122.64,0.12-183.96c0.12-34.68,0.94-69.36,1.12-104.04c0.07-13.6-0.43-27.23-1.46-40.79
		c-0.26-3.39-3.01-7.12-5.6-9.71c-7.15-7.18-16.46-12.79-21.82-21.03c-5.08-7.81-7.61-17.99-8.77-27.44
		c-1.45-11.74-0.34-23.8-0.34-35.73c-0.01-9.69,3.41-15.46,14.19-17.53c27.47-5.27,52.81-15.4,72.64-36.4
		c12.14-12.85,18.92-28.05,21.26-45.37c0.36-2.65,0.56-5.7-0.41-8.05c-0.89-2.15-5.32-5.04-5.32-5.04s-5.22,1.72-6.31,3.63
		c-1.61,2.81-1.92,6.41-2.61,9.71c-8.75,41.98-48.53,60.51-77.54,63.53c-19.01,1.98-37.93,1.24-56.13-6.67
		c-26.88-11.67-41.35-32.35-45.5-60.62c-2.86-19.46-2.43-19.47,16.37-25.9c6.1-2.09,12.82-3.48,17.87-7.12
		c3.24-2.34,7.58-8.2,5.75-12.49c-1.81-4.25-8.89-5.07-12.9-4.5c-6.92,0.98-13.43,4.61-20.23,6.79c-4.54,1.46-10.51,5.19-12.08-3.12
		c-1.24-6.56-4.66-14.49,5.47-17.98c7.71-2.66,15.39-5.41,23.03-8.28c6.85-2.57,11.37-7.02,8.27-14.79
		c-3.04-7.6-9.07-5.24-14.71-3.24c-8.24,2.92-16.51,5.74-24.54,8.52c-8.31-14.52-6.84-19.41,6.8-25.13
		c6.89-2.89,14.43-4.76,20.55-8.8c3.33-2.2,8.07-7.82,6.35-12.12c-1.6-4-8.51-4.9-12.05-4.12c-9.52,2.11-18.65,6.01-27.86,9.18
		c-8.09-15.61-6.67-19.81,8.58-26.55c6.54-2.89,13.22-5.48,19.57-8.74c5.37-2.76,9.91-6.49,6.83-13.74
		c-3.05-7.19-8.26-5.56-13.61-3.36c-5.35,2.2-10.61,4.65-16.07,6.51c-4.32,1.48-9.14,6.9-13.28,0.04
		c-3.39-5.63-0.44-16.71,5.04-19.65c6.9-3.7,14.03-6.97,21.01-10.52c2.72-1.38,6.51-2.41,7.68-4.69c1.89-3.69,3.66-8.94,2.32-12.26
		c-0.93-2.31-7.8-4.34-10.89-3.27C377.95,154.57,369,159.43,358.83,164.16z M578.62,266.25c7.06-0.21,14.8,1.52,15.71-7.89
		c0.9-9.37-5.43-11.69-13.5-12.68c-41.17-5.08-81.2-0.77-120.13,13.63c-7.13,2.64-12.23,6.61-9.34,15.12
		c3.03,8.92,9.79,6.44,16.04,4.51c9.06-2.81,17.91-6.48,27.12-8.6C522.52,263.89,550.84,262.32,578.62,266.25z M535.28,157.74
		c-11.43,0.89-21.15,0.55-30.35,2.58c-19.85,4.38-39.57,9.55-58.99,15.54c-3.04,0.94-6.14,8.18-5.61,12.01
		c0.38,2.72,6.57,5.49,10.61,6.55c2.88,0.75,6.6-1,9.76-2.15c35.22-12.74,71.19-17.07,108.26-10.24c6.4,1.18,11.93-0.24,13.11-7.62
		c1.2-7.54-2.93-11.42-10.24-12.29C559.03,160.59,546.23,159.05,535.28,157.74z M576.5,223.1c2.5-0.1,5.28,1.48,8.5-1.1
		c3.49-2.8,2.7-2.46,3-6c0.3-3.52-4.91-7.73-8.38-10.62c-2.3-1.92-6.42-2.04-9.78-2.25c-37.19-2.33-74.04-1.48-109.57,11.9
		c-7.69,2.9-17.74,4.47-14.13,15.68c3.76,11.68,13.44,6.52,20.66,3.87c24.31-8.92,49.26-12.59,75.08-11.56
		C553.41,223.48,564.96,223.1,576.5,223.1z M562.03,307.61c8.23,0,18.51,0.73,28.59-0.36c3.97-0.43,9.68-4.29,10.73-7.76
		c1.71-5.66-2.03-10.05-8.87-10.82c-43.12-4.84-85.48-2.09-126.49,12.97c-3.36,1.23-7.18,5.56-7.84,9c-1.87,9.88,5.11,14.14,17,9.62
		C502.6,309.82,530.79,305.23,562.03,307.61z M517,114c-19.69,0.93-43.86,8.8-68.16,14.58c-12.11,2.88-16.39,8.55-13.2,16.35
		c4.11,10.04,12,4.89,18.27,3.02c25.15-7.52,50.62-13.17,77-12.35c12.48,0.39,24.88,2.95,37.37,3.6c3.11,0.16,9.1-3.26,9.09-5
		c-0.03-4.09-2.23-8.67-4.86-12.04c-1.53-1.97-5.52-2.39-8.5-2.79C550.25,117.53,536.71,113.07,517,114z M540.51,517.66
		c13.83,0.15,23.15-7.84,23.38-20.07c0.27-14.31-10.11-26.7-22.46-26.8c-12.47-0.1-21.34,10.24-21.29,24.85
		C520.18,508.23,528.79,517.53,540.51,517.66z M566.58,426.93c0.6,0.13,1.88,0.67,3.17,0.67c27.2-0.02,53.52-33.21,47.22-59.93
		c-0.61-2.59-3.94-4.53-6.01-6.78c-1.98,2.45-4.71,4.6-5.81,7.39c-4.18,10.63-6.02,22.65-12.15,31.89
		C586.31,410.26,575.84,417.84,566.58,426.93z M614.55,423.06c-0.17-0.15,0.28,0.61,0.76,0.63c24.73,1.23,50.98-31.39,44.13-55.21
		c-0.77-2.66-4.27-4.54-6.5-6.78c-2.34,2.46-5.75,4.52-6.83,7.44c-3.71,10.08-5,21.39-10.26,30.47
		C630.7,408.54,621.82,415.32,614.55,423.06z"/>
</g>
<g id="Off_White_Anchor">
	<path class="st3" d="M358.83,164.16c-8.97-52.55,13-96.94,61-120.48c17.03-8.35,36.38-12.7,55.14-16.6
		c19.93-4.14,34.76,6.03,45.73,22.17c2.86,4.21,4.58,9.26,7.79,13.13c3.02,3.65,7.31,6.25,11.04,9.32
		c-0.13-5.06,1.19-10.78-0.73-15.04c-3.11-6.93-8.34-12.92-13.4-20.37c17.07,1.62,28.79,9.94,37.84,22.41
		c3.78,5.2,6.17,11.45,10.15,16.45c2.27,2.85,6.49,4.15,9.83,6.14c0.3-3.95,2.1-8.63,0.6-11.71c-3.36-6.94-8.2-13.2-12.75-19.51
		c-2.13-2.95-5-5.36-6.93-8.89c17.18,1.16,29.71,10.54,39.85,23.44c4.14,5.27,6.35,12.01,10.22,17.54c1.83,2.62,5.51,3.96,8.34,5.87
		c0.87-3.26,3.42-7.3,2.32-9.63c-4.26-9.06-9.69-17.57-14.81-26.52c13.99,1.84,25.59,10.01,31.48,21.98
		c7.51,15.26,11.57,32.3,16.25,48.82c1.75,6.16-2.98,7.17-8.28,6.17c-7.32-1.37-14.68-2.59-22.07-3.48
		c-5.2-0.63-9.73,0.57-10.07,7.08c-0.34,6.48,2.71,10.11,9.26,11.13c7.38,1.15,14.71,2.63,22.03,4.08
		c14.1,2.78,16.58,6.6,14.31,23.41c-9.55-1.38-19.12-2.7-28.68-4.16c-5.08-0.78-9.99-1.04-10.83,5.63
		c-0.7,5.58-0.71,11.03,7.04,12.26c9.03,1.42,18.03,3.15,26.96,5.14c11.51,2.57,14.8,9.41,10.7,22.17
		c-9.95-0.99-20.01-2.12-30.09-2.93c-5.42-0.44-10.58,0.14-10.57,7.57c0.01,6.62,3.54,9.91,9.94,10.6
		c5.74,0.62,11.44,1.6,17.18,2.06c18.81,1.54,19.79,2.54,20.23,23.44c-9.48-0.76-18.86-1.42-28.23-2.28
		c-5.62-0.52-11.7-1.32-12.96,6.05c-1.3,7.54,3.02,11.04,10.45,11.8c7.41,0.76,14.77,2.1,22.11,3.44
		c15.12,2.76,16.76,5.59,12.89,20.89c-9.89,0-19.68,0.39-29.42-0.15c-5.57-0.31-10.77-0.72-11.72,6.15
		c-0.98,7.12,3.63,10.84,10,11.76c9.06,1.3,18.22,2.29,27.36,2.56c6.39,0.19,8.73,2.72,9.87,8.87c4.94,26.66,7.61,53.03-10.88,76.06
		c-15.71,19.55-37.67,28.9-61.47,33.47c-9.97,1.91-12.58,5.92-12.28,15.48c0.48,15.26,1.26,30.88-1.34,45.78
		c-4.59,26.3-23.74,44.65-40.27,63.88c-6.23,7.24-9.46,13.88-9.37,23.47c0.94,101.83,1.36,203.66,2.25,305.48
		c0.28,31.89,24.41,50.56,55.64,43.41c54.08-12.37,93.13-45.42,120.07-92.34c12.21-21.27,19.43-45.42,28.81-68.3
		c0.88-2.15,1.11-4.59,1.4-6.93c0.12-0.93-0.43-1.94-1.05-4.4h-42.5c27.76-28.35,51.27-56.22,66.18-92.37
		c24.41,36.39,34.2,76.35,47.4,114.99c-10.16-5.41-20.13-10.72-31.7-16.89c-2.44,16.6-3.93,32.01-7.04,47.08
		c-16.4,79.48-59.89,138.45-132.39,176.24c-31.57,16.46-62.05,35.09-92.47,53.63c-10.02,6.11-18.32,15.03-27.72,22.93
		c-11.41-9.98-22.09-21.07-34.46-29.75c-19.73-13.83-40.19-26.75-61.06-38.8c-31.91-18.43-62.87-37.98-89.3-65.93
		c-6.59,7.46-12.53,14.18-18.51,20.95c-8.34-13.93-14.29-95.8-7.86-115.52c23.73,26.84,53.79,43.69,86.88,60.51
		c-9.78,5.57-17.7,10.09-25.69,14.64c18.1,24.4,61.26,39.4,88.36,31.32c18.81-5.61,31.77-23.22,31.8-43.94
		c0.11-61.32-0.09-122.64,0.12-183.96c0.12-34.68,0.94-69.36,1.12-104.04c0.07-13.6-0.43-27.23-1.46-40.79
		c-0.26-3.39-3.01-7.12-5.6-9.71c-7.15-7.18-16.46-12.79-21.82-21.03c-5.08-7.81-7.61-17.99-8.77-27.44
		c-1.45-11.74-0.34-23.8-0.34-35.73c-0.01-9.69,3.41-15.46,14.19-17.53c27.47-5.27,52.81-15.4,72.64-36.4
		c12.14-12.85,18.92-28.05,21.26-45.37c0.36-2.65,0.56-5.7-0.41-8.05c-0.89-2.15-5.32-5.04-5.32-5.04s-5.22,1.72-6.31,3.63
		c-1.61,2.81-1.92,6.41-2.61,9.71c-8.75,41.98-48.53,60.51-77.54,63.53c-19.01,1.98-37.93,1.24-56.13-6.67
		c-26.88-11.67-41.35-32.35-45.5-60.62c-2.86-19.46-2.43-19.47,16.37-25.9c6.1-2.09,12.82-3.48,17.87-7.12
		c3.24-2.34,7.58-8.2,5.75-12.49c-1.81-4.25-8.89-5.07-12.9-4.5c-6.92,0.98-13.43,4.61-20.23,6.79c-4.54,1.46-10.51,5.19-12.08-3.12
		c-1.24-6.56-4.66-14.49,5.47-17.98c7.71-2.66,15.39-5.41,23.03-8.28c6.85-2.57,11.37-7.02,8.27-14.79
		c-3.04-7.6-9.07-5.24-14.71-3.24c-8.24,2.92-16.51,5.74-24.54,8.52c-8.31-14.52-6.84-19.41,6.8-25.13
		c6.89-2.89,14.43-4.76,20.55-8.8c3.33-2.2,8.07-7.82,6.35-12.12c-1.6-4-8.51-4.9-12.05-4.12c-9.52,2.11-18.65,6.01-27.86,9.18
		c-8.09-15.61-6.67-19.81,8.58-26.55c6.54-2.89,13.22-5.48,19.57-8.74c5.37-2.76,9.91-6.49,6.83-13.74
		c-3.05-7.19-8.26-5.56-13.61-3.36c-5.35,2.2-10.61,4.65-16.07,6.51c-4.32,1.48-9.14,6.9-13.28,0.04
		c-3.39-5.63-0.44-16.71,5.04-19.65c6.9-3.7,14.03-6.97,21.01-10.52c2.72-1.38,6.51-2.41,7.68-4.69c1.89-3.69,3.66-8.94,2.32-12.26
		c-0.93-2.31-7.8-4.34-10.89-3.27C377.95,154.57,369,159.43,358.83,164.16z M578.62,266.25c7.06-0.21,14.8,1.52,15.71-7.89
		c0.9-9.37-5.43-11.69-13.5-12.68c-41.17-5.08-81.2-0.77-120.13,13.63c-7.13,2.64-12.23,6.61-9.34,15.12
		c3.03,8.92,9.79,6.44,16.04,4.51c9.06-2.81,17.91-6.48,27.12-8.6C522.52,263.89,550.84,262.32,578.62,266.25z M535.28,157.74
		c-11.43,0.89-21.15,0.55-30.35,2.58c-19.85,4.38-39.57,9.55-58.99,15.54c-3.04,0.94-6.14,8.18-5.61,12.01
		c0.38,2.72,6.57,5.49,10.61,6.55c2.88,0.75,6.6-1,9.76-2.15c35.22-12.74,71.19-17.07,108.26-10.24c6.4,1.18,11.93-0.24,13.11-7.62
		c1.2-7.54-2.93-11.42-10.24-12.29C559.03,160.59,546.23,159.05,535.28,157.74z M576.5,223.1c2.5-0.1,5.28,1.48,8.5-1.1
		c3.49-2.8,2.7-2.46,3-6c0.3-3.52-4.91-7.73-8.38-10.62c-2.3-1.92-6.42-2.04-9.78-2.25c-37.19-2.33-74.04-1.48-109.57,11.9
		c-7.69,2.9-17.74,4.47-14.13,15.68c3.76,11.68,13.44,6.52,20.66,3.87c24.31-8.92,49.26-12.59,75.08-11.56
		C553.41,223.48,564.96,223.1,576.5,223.1z M562.03,307.61c8.23,0,18.51,0.73,28.59-0.36c3.97-0.43,9.68-4.29,10.73-7.76
		c1.71-5.66-2.03-10.05-8.87-10.82c-43.12-4.84-85.48-2.09-126.49,12.97c-3.36,1.23-7.18,5.56-7.84,9c-1.87,9.88,5.11,14.14,17,9.62
		C502.6,309.82,530.79,305.23,562.03,307.61z M517,114c-19.69,0.93-43.86,8.8-68.16,14.58c-12.11,2.88-16.39,8.55-13.2,16.35
		c4.11,10.04,12,4.89,18.27,3.02c25.15-7.52,50.62-13.17,77-12.35c12.48,0.39,24.88,2.95,37.37,3.6c3.11,0.16,9.1-3.26,9.09-5
		c-0.03-4.09-2.23-8.67-4.86-12.04c-1.53-1.97-5.52-2.39-8.5-2.79C550.25,117.53,536.71,113.07,517,114z M540.51,517.66
		c13.83,0.15,23.15-7.84,23.38-20.07c0.27-14.31-10.11-26.7-22.46-26.8c-12.47-0.1-21.34,10.24-21.29,24.85
		C520.18,508.23,528.79,517.53,540.51,517.66z M566.58,426.93c0.6,0.13,1.88,0.67,3.17,0.67c27.2-0.02,53.52-33.21,47.22-59.93
		c-0.61-2.59-3.94-4.53-6.01-6.78c-1.98,2.45-4.71,4.6-5.81,7.39c-4.18,10.63-6.02,22.65-12.15,31.89
		C586.31,410.26,575.84,417.84,566.58,426.93z M614.55,423.06c-0.17-0.15,0.28,0.61,0.76,0.63c24.73,1.23,50.98-31.39,44.13-55.21
		c-0.77-2.66-4.27-4.54-6.5-6.78c-2.34,2.46-5.75,4.52-6.83,7.44c-3.71,10.08-5,21.39-10.26,30.47
		C630.7,408.54,621.82,415.32,614.55,423.06z"/>
</g>
</svg>
